<?xml version="1.0" encoding="UTF-8"?>
<svg id="Layer_1" data-name="Layer 1" xmlns="http://www.w3.org/2000/svg" viewBox="0 0 1024 220">
  <defs>
    <style>
      .cls-1 {
        fill: #fff;
        stroke-width: 0px;
      }
    </style>
  </defs>
  <path class="cls-1" d="M171.28,197.66V16.6c0-2.27,1.84-4.11,4.11-4.11h31.67c2.27,0,4.11,1.84,4.11,4.11v181.06c0,2.27-1.84,4.11-4.11,4.11h-31.67c-2.27,0-4.11-1.84-4.11-4.11Z"/>
  <path class="cls-1" d="M280.51,204.38c-11.65,0-22.03-2.87-31.15-8.6-9.13-5.74-16.34-13.56-21.64-23.46-5.3-9.91-7.95-21.2-7.95-33.89s2.65-23.99,7.95-33.89c5.3-9.91,12.51-17.73,21.64-23.46,9.12-5.74,19.51-8.6,31.15-8.6,8.51,0,16.21,1.65,23.07,4.95,6.86,3.3,12.47,7.87,16.82,13.69,4.31,5.78,6.74,12.36,7.29,19.75,0,.13.01.25.01.38v54.37c0,.12,0,.25-.01.38-.55,7.4-2.93,13.98-7.16,19.76-4.26,5.83-9.87,10.39-16.82,13.69-6.95,3.3-14.69,4.95-23.2,4.95ZM288.59,168.4c8.51,0,15.38-2.82,20.6-8.47,5.21-5.65,7.82-12.82,7.82-21.51,0-5.91-1.17-11.12-3.52-15.64-2.35-4.52-5.65-8.04-9.91-10.56-4.26-2.52-9.17-3.78-14.73-3.78s-10.47,1.26-14.73,3.78c-4.26,2.52-7.65,6.04-10.17,10.56-2.52,4.52-3.78,9.74-3.78,15.64s1.21,10.86,3.65,15.38c2.43,4.52,5.82,8.08,10.17,10.69,4.34,2.61,9.21,3.91,14.6,3.91ZM315.45,197.66v-29.65c0-.26.03-.53.08-.79l5.77-29.59c.1-.52.1-1.05,0-1.57l-5.77-29.59c-.05-.26-.08-.52-.08-.79v-26.52c0-2.27,1.84-4.11,4.11-4.11h30.89c2.27,0,4.11,1.84,4.11,4.11v118.49c0,2.27-1.84,4.11-4.11,4.11h-30.89c-2.27,0-4.11-1.84-4.11-4.11Z"/>
  <path class="cls-1" d="M369.9,197.66v-118.49c0-2.27,1.84-4.11,4.11-4.11h31.67c2.27,0,4.11,1.84,4.11,4.11v118.49c0,2.27-1.84,4.11-4.11,4.11h-31.67c-2.27,0-4.11-1.84-4.11-4.11ZM457.7,201.77c-2.27,0-4.11-1.84-4.11-4.11v-68.11c0-6.6-2.05-11.95-6.13-16.03-4.09-4.08-9.25-6.13-15.51-6.13-4.35,0-8.17.91-11.47,2.74-3.3,1.83-5.91,4.43-7.82,7.82-1.08,1.91-1.85,3.97-2.32,6.17-.56,2.62-3.42,4.02-5.82,2.84l-7.76-3.81c-1.48-.73-2.36-2.27-2.29-3.92.37-8.77,2.52-16.53,6.46-23.31,4.34-7.47,10.38-13.25,18.12-17.34,7.73-4.08,16.47-6.13,26.2-6.13s17.68,2.22,24.9,6.65c7.21,4.43,12.91,10.3,17.08,17.6,4.17,7.3,6.26,15.3,6.26,23.99v76.97c0,2.27-1.84,4.11-4.11,4.11h-31.67Z"/>
  <path class="cls-1" d="M494.31,104.85v-25.68c0-2.27,1.84-4.11,4.11-4.11h89.03c2.27,0,4.11,1.84,4.11,4.11v25.68c0,2.27-1.84,4.11-4.11,4.11h-89.03c-2.27,0-4.11-1.84-4.11-4.11ZM522.99,197.66V26.77c0-2.27,1.84-4.11,4.11-4.11h31.67c2.27,0,4.11,1.84,4.11,4.11v170.89c0,2.27-1.84,4.11-4.11,4.11h-31.67c-2.27,0-4.11-1.84-4.11-4.11Z"/>
  <path class="cls-1" d="M595.78,197.66v-118.49c0-2.27,1.84-4.11,4.11-4.11h31.67c2.27,0,4.11,1.84,4.11,4.11v118.49c0,2.27-1.84,4.11-4.11,4.11h-31.67c-2.27,0-4.11-1.84-4.11-4.11ZM629.7,127.5l-8.64-6.75c-1.26-.99-1.86-2.63-1.47-4.18,3.36-13.54,8.72-24.16,16.08-31.85,7.82-8.17,18.68-12.25,32.59-12.25,6.08,0,11.43.91,16.03,2.74,3.41,1.35,6.51,3.25,9.3,5.7,1.66,1.45,1.9,3.94.53,5.67l-18.84,23.81c-1.34,1.7-3.74,1.96-5.53.74-1.09-.74-2.28-1.37-3.58-1.89-2.61-1.04-5.56-1.56-8.86-1.56-6.61,0-11.86,2.05-15.77,6.13-2.67,2.79-4.43,6.53-5.27,11.21-.55,3.04-4.13,4.4-6.56,2.5Z"/>
  <path class="cls-1" d="M753.63,204.64c-13.73,0-25.94-2.83-36.63-8.47-10.69-5.65-19.08-13.51-25.16-23.59-6.09-10.08-9.13-21.46-9.13-34.15s3-24.03,8.99-34.02c6-9.99,14.12-17.86,24.38-23.59,10.25-5.74,21.81-8.6,34.67-8.6s23.55,2.7,33.11,8.08c9.56,5.39,17.08,12.86,22.55,22.42,5.47,9.56,8.21,20.51,8.21,32.85,0,2.26-.13,4.65-.39,7.17-.17,1.62-.43,3.39-.77,5.33s-2.05,3.41-4.04,3.41l-101.74.24c-2.27,0-4.12-1.84-4.12-4.11v-19.16c0-2.26,1.83-4.1,4.1-4.11l74.56-.21c4.07-.01,5.68,5.27,2.29,7.52h0c-2.53,1.69-5.97.13-6.34-2.89-.54-4.34-1.51-8.11-2.91-11.32-2.09-4.78-5.17-8.43-9.25-10.95-4.09-2.52-9.08-3.78-14.99-3.78-6.26,0-11.69,1.43-16.29,4.3-4.61,2.87-8.17,6.91-10.69,12.12-2.52,5.21-3.78,11.56-3.78,19.03s1.34,13.86,4.04,19.16c2.69,5.3,6.52,9.39,11.47,12.25,4.95,2.87,10.82,4.3,17.6,4.3,6.26,0,11.9-1.08,16.95-3.26,3.89-1.68,7.42-4,10.59-6.98,1.59-1.5,4.11-1.4,5.65.15l16.17,16.17c1.58,1.58,1.62,4.16.06,5.76-5.69,5.83-12.34,10.31-19.96,13.45-8.86,3.65-18.6,5.47-29.2,5.47Z"/>
  <path class="cls-1" d="M884.9,204.64c-13.73,0-25.94-2.83-36.63-8.47-10.69-5.65-19.08-13.51-25.16-23.59-6.09-10.08-9.13-21.46-9.13-34.15s3-24.03,8.99-34.02c6-9.99,14.12-17.86,24.38-23.59,10.25-5.74,21.81-8.6,34.67-8.6s23.55,2.7,33.11,8.08c9.56,5.39,17.08,12.86,22.55,22.42,5.47,9.56,8.21,20.51,8.21,32.85,0,2.26-.13,4.65-.39,7.17-.17,1.62-.43,3.39-.77,5.33s-2.05,3.41-4.04,3.41l-101.74.24c-2.27,0-4.12-1.84-4.12-4.11v-19.16c0-2.26,1.83-4.1,4.1-4.11l74.56-.21c4.07-.01,5.68,5.27,2.29,7.52h0c-2.53,1.69-5.97.13-6.34-2.89-.54-4.34-1.51-8.11-2.91-11.32-2.09-4.78-5.17-8.43-9.25-10.95-4.09-2.52-9.08-3.78-14.99-3.78-6.26,0-11.69,1.43-16.29,4.3-4.61,2.87-8.17,6.91-10.69,12.12-2.52,5.21-3.78,11.56-3.78,19.03s1.34,13.86,4.04,19.16c2.69,5.3,6.52,9.39,11.47,12.25,4.95,2.87,10.82,4.3,17.6,4.3,6.26,0,11.9-1.08,16.95-3.26,3.89-1.68,7.42-4,10.59-6.98,1.59-1.5,4.11-1.4,5.65.15l16.17,16.17c1.58,1.58,1.62,4.16.06,5.76-5.69,5.83-12.34,10.31-19.96,13.45-8.86,3.65-18.6,5.47-29.2,5.47Z"/>
  <path class="cls-1" d="M972.99,204.64c-6.78,0-12.43-2.35-16.95-7.04-4.52-4.69-6.78-10.34-6.78-16.95,0-6.95,2.26-12.73,6.78-17.34,4.52-4.6,10.17-6.91,16.95-6.91s12.64,2.31,17.08,6.91c4.43,4.61,6.65,10.39,6.65,17.34s-2.22,12.25-6.65,16.95c-4.43,4.69-10.13,7.04-17.08,7.04Z"/>
  <path class="cls-1" d="M166.24,76.1c0,12-2.75,22.4-8.21,31.17-5.48,8.77-12.92,15.56-22.31,20.34-9.38,4.78-19.89,7.15-31.53,7.15h-36v67.01h-29.62c-6.24,0-11.29-5.06-11.29-11.29v-74.73c8.01-10.87,16.17-16.89,21.85-20.3,6.74-4.06,12.43-5.91,19.06-7.89,6.04-1.83,12.88-3.74,22.03-7.58,10.19-4.29,18-8.73,22.71-11.59-6.31,8.25-12.68,12.81-17.41,15.45-5.26,2.95-13.76,6.47-20.3,9.18-2.89,1.2-5.14,2.12-7.04,3.04-2.57,1.26-4.38,2.55-6,4.69-.54.72-1.01,1.47-1.4,2.21-1.87,3.52-2.23,7.26-2.23,9.88,2.3.69,5.6,1.56,9.63,2.26,6.86,1.18,16.01,2.76,26.37.16,11.76-2.95,19.28-9.81,22.23-12.57,6.11-5.71,7.38-9.55,15.47-21.75,3.91-5.9,9.04-13.17,15.48-21.26-6.95-3.68-18.4-8.7-33.36-10.65-8.1-1.05-20.3-2.64-34.8,1.94-15.08,4.77-24.38,13.61-31.41,20.3-10.26,9.76-16.8,19.87-20.89,27.56V34.4c0-9.22,7.47-16.69,16.69-16.69h60.22c11.64,0,22.15,2.35,31.53,7.04,9.38,4.69,16.82,11.43,22.31,20.21,5.46,8.77,8.21,19.17,8.21,31.15Z"/>
</svg>