<?xml version="1.0" encoding="UTF-8"?>
<svg id="Layer_1" data-name="Layer 1" xmlns="http://www.w3.org/2000/svg" viewBox="0 0 1024 1024">
  <defs>
    <style>
      .cls-1 {
        fill: #24510a;
        stroke-width: 0px;
      }
    </style>
  </defs>
  <path class="cls-1" d="M901.96,329.85c0,66.28-15.2,123.71-45.35,172.17-30.27,48.46-71.38,85.96-123.21,112.37-51.82,26.41-109.88,39.49-174.16,39.49h-198.83v370.12h-163.61c-34.45,0-62.38-27.93-62.38-62.38v-412.76c44.22-60.05,89.32-93.31,120.72-112.12,37.25-22.42,68.64-32.64,105.27-43.6,33.39-10.09,71.13-20.68,121.71-41.86,56.31-23.67,99.41-48.21,125.45-64.03-34.88,45.6-70.01,70.76-96.17,85.34-29.03,16.32-75.99,35.75-112.12,50.7-15.95,6.6-28.4,11.71-38.87,16.82-14.2,6.98-24.17,14.08-33.14,25.91-2.99,3.99-5.61,8.1-7.72,12.21-10.34,19.43-12.33,40.11-12.33,54.57,12.7,3.79,30.94,8.62,53.19,12.46,37.9,6.53,88.44,15.23,145.68.89,64.95-16.27,106.5-54.18,122.8-69.41,33.74-31.52,40.75-52.76,85.42-120.13,21.62-32.6,49.91-72.76,85.48-117.44-38.38-20.32-101.63-48.04-184.25-58.8-44.75-5.83-112.14-14.6-192.21,10.73-83.31,26.36-134.68,75.19-173.52,112.12-56.68,53.88-92.82,109.78-115.39,152.22V99.51c0-50.91,41.27-92.19,92.19-92.19h332.62c64.28,0,122.34,12.96,174.16,38.87,51.82,25.91,92.93,63.16,123.21,111.62,30.15,48.46,45.35,105.89,45.35,172.04Z"/>
</svg>