<?xml version="1.0" standalone="no"?>
<!DOCTYPE svg PUBLIC "-//W3C//DTD SVG 20010904//EN"
 "http://www.w3.org/TR/2001/REC-SVG-20010904/DTD/svg10.dtd">
<svg version="1.0" xmlns="http://www.w3.org/2000/svg"
 width="4267.000000pt" height="4267.000000pt" viewBox="0 0 4267.000000 4267.000000"
 preserveAspectRatio="xMidYMid meet">

<g transform="translate(0.000000,4267.000000) scale(0.100000,-0.100000)"
fill="#000000" stroke="none">
<path d="M39310 18105 c-85 -16 -229 -64 -305 -102 -329 -164 -567 -490 -625
-855 -20 -123 -8 -351 24 -473 47 -178 148 -359 280 -502 229 -248 601 -388
939 -353 277 28 520 143 712 335 146 147 247 321 301 520 36 133 45 364 20
498 -86 455 -407 797 -866 919 -100 26 -371 34 -480 13z"/>
</g>
</svg>
